<?xml version="1.0" standalone="no"?>
<!DOCTYPE svg PUBLIC "-//W3C//DTD SVG 20010904//EN"
 "http://www.w3.org/TR/2001/REC-SVG-20010904/DTD/svg10.dtd">
<svg version="1.0" xmlns="http://www.w3.org/2000/svg"
 width="2000.000000pt" height="2000.000000pt" viewBox="0 0 2000.000000 2000.000000"
 preserveAspectRatio="xMidYMid meet">
<metadata>
Created by potrace 1.14, written by Peter Selinger 2001-2017
</metadata>
<g transform="translate(0.000000,2000.000000) scale(0.100000,-0.100000)"
fill="#000000" stroke="none">
<path d="M9837 19910 c-86 -49 -184 -104 -219 -123 -35 -19 -90 -49 -123 -67
-33 -18 -73 -41 -90 -50 -16 -10 -55 -31 -85 -48 -30 -16 -73 -40 -95 -52 -38
-22 -250 -140 -365 -203 -30 -16 -111 -62 -180 -100 -69 -39 -150 -84 -180
-100 -30 -16 -84 -47 -120 -67 -36 -21 -92 -52 -125 -70 -33 -18 -139 -77
-235 -130 -96 -54 -197 -110 -225 -125 -27 -15 -108 -60 -180 -100 -71 -40
-150 -84 -175 -97 -161 -89 -397 -220 -410 -228 -8 -5 -31 -18 -50 -28 -19
-10 -159 -87 -310 -172 -151 -84 -300 -166 -330 -183 -30 -17 -104 -58 -165
-92 -60 -34 -141 -79 -180 -100 -38 -21 -119 -66 -180 -100 -60 -34 -135 -75
-165 -92 -30 -16 -199 -110 -375 -208 -176 -98 -338 -188 -360 -200 -22 -12
-101 -56 -175 -97 -74 -41 -162 -90 -195 -108 -33 -18 -175 -97 -315 -175
-140 -79 -275 -154 -300 -167 -25 -14 -290 -162 -590 -328 -300 -167 -565
-314 -590 -328 -25 -13 -187 -103 -360 -200 -476 -264 -627 -348 -730 -405
-36 -20 -198 -110 -360 -200 l-295 -165 -3 -5000 -2 -5000 42 -25 c52 -30 93
-53 178 -99 36 -20 124 -68 195 -108 72 -40 153 -85 180 -100 53 -30 187 -104
245 -137 19 -11 64 -36 100 -55 36 -20 157 -87 270 -150 113 -63 235 -131 273
-151 103 -57 390 -217 407 -227 8 -5 31 -18 50 -28 19 -11 153 -85 298 -166
145 -80 267 -146 273 -146 5 0 9 -4 9 -10 0 -5 5 -10 10 -10 6 0 45 -20 88
-44 42 -23 100 -56 127 -71 28 -15 146 -81 263 -146 117 -66 215 -119 218
-119 2 0 22 -11 44 -25 22 -14 71 -42 108 -62 37 -20 85 -47 107 -59 22 -12
60 -34 85 -47 25 -14 140 -77 255 -142 116 -65 239 -133 275 -153 36 -19 81
-44 100 -55 19 -11 53 -30 75 -42 88 -49 142 -79 180 -100 79 -45 301 -168
365 -203 36 -19 81 -44 100 -55 242 -136 463 -257 470 -257 6 0 10 -4 10 -10
0 -5 5 -10 10 -10 6 0 45 -20 88 -44 90 -51 28 -16 750 -417 316 -176 578
-319 583 -319 5 0 9 -4 9 -10 0 -5 4 -10 10 -10 5 0 101 -51 212 -113 207
-116 271 -152 368 -205 30 -16 84 -46 120 -67 36 -20 74 -41 85 -46 11 -6 29
-15 40 -22 11 -7 81 -46 155 -87 74 -41 144 -80 155 -87 11 -7 27 -16 35 -20
14 -6 379 -209 490 -271 25 -14 70 -38 100 -55 30 -17 106 -59 167 -94 62 -34
115 -63 117 -63 3 0 27 -14 55 -31 l50 -31 133 75 c73 41 160 90 193 108 33
18 110 60 170 94 61 34 141 79 178 99 37 20 84 46 105 58 33 19 436 242 522
290 19 11 67 37 105 59 39 22 84 47 100 55 17 8 44 23 60 33 25 15 359 200
565 314 30 17 71 39 90 50 19 11 193 107 385 213 193 107 357 199 365 204 8 6
26 16 40 22 14 7 41 22 60 33 19 12 67 39 105 60 71 38 213 117 295 163 25 13
83 46 130 72 47 26 105 59 130 72 69 39 489 272 543 302 102 56 145 80 232
129 50 27 115 64 145 80 30 16 84 47 120 67 36 20 90 51 120 67 30 16 96 53
145 80 50 28 110 62 135 75 25 14 169 94 320 178 151 84 295 164 320 178 50
27 469 260 540 300 25 13 86 47 135 75 50 27 115 64 145 80 30 17 101 57 158
89 57 32 105 58 107 58 2 0 42 22 89 49 47 28 121 69 163 92 43 23 94 51 113
62 36 20 448 249 530 295 25 13 83 46 130 72 47 26 105 59 130 72 44 25 178
99 290 161 30 16 105 58 165 92 61 34 139 78 175 97 36 20 121 67 190 106
l125 70 3 5000 2 5000 -42 25 c-52 30 -92 52 -183 102 -90 49 -136 75 -365
202 -132 74 -1042 580 -1085 603 -27 15 -108 60 -180 100 -71 40 -152 85 -180
100 -27 15 -165 92 -305 170 -140 78 -280 156 -310 172 -30 17 -77 43 -105 58
-27 16 -79 44 -115 64 -36 20 -72 41 -80 46 -8 6 -22 13 -30 17 -8 4 -390 215
-849 470 -458 255 -837 463 -841 463 -5 0 -10 3 -12 8 -1 4 -19 15 -38 26 -46
25 -155 84 -205 112 -22 13 -58 32 -80 44 -22 12 -141 79 -265 148 -124 69
-243 135 -265 147 -183 101 -1026 569 -1080 600 -22 13 -101 56 -175 98 -74
41 -155 86 -180 100 -67 37 -298 165 -355 197 -27 15 -214 118 -415 230 -201
111 -387 215 -415 230 -126 69 -697 388 -730 407 -20 12 -76 41 -106 54 -10 4
-70 -24 -172 -81z"/>
</g>
</svg>
